<?xml version="1.0" standalone="no"?><!DOCTYPE svg PUBLIC "-//W3C//DTD SVG 1.1//EN" "http://www.w3.org/Graphics/SVG/1.1/DTD/svg11.dtd"><svg t="1629790165577" class="icon" viewBox="0 0 1024 1024" version="1.1" xmlns="http://www.w3.org/2000/svg" p-id="3380" xmlns:xlink="http://www.w3.org/1999/xlink" width="32" height="32"><defs><style type="text/css"></style></defs><path d="M512 462c-7.7 0-15.4-2.9-21.2-8.8l-80-80c-11.7-11.7-11.7-30.7 0-42.4s30.7-11.7 42.4 0l58.8 58.8 58.8-58.8c11.7-11.7 30.7-11.7 42.4 0s11.7 30.7 0 42.4l-80 80c-5.8 5.9-13.5 8.8-21.2 8.8z" p-id="3381"></path><path d="M612 502H412c-16.6 0-30-13.4-30-30s13.4-30 30-30h200c16.6 0 30 13.4 30 30s-13.4 30-30 30z m0 100H412c-16.6 0-30-13.4-30-30s13.4-30 30-30h200c16.6 0 30 13.4 30 30s-13.4 30-30 30z" p-id="3382"></path><path d="M512 702c-16.6 0-30-13.4-30-30V472c0-16.6 13.4-30 30-30s30 13.4 30 30v200c0 16.6-13.4 30-30 30z m369.9-207.1c-4.1 0-8.3-0.9-12.3-2.6l-59.4-26.7c-15.1-6.8-21.9-24.5-15.1-39.7 6.8-15.1 24.5-21.9 39.7-15.1l37.5 16.9 23.4-31.1c10-13.2 28.8-15.9 42-5.9s15.9 28.8 5.9 42l-37.8 50.2c-5.7 7.7-14.7 12-23.9 12z" p-id="3383"></path><path d="M871.8 455.6c-13.6 0-25.8-9.2-29.1-23-43.8-182.3-227.7-295-410-251.2-113 27.1-203.3 108.9-241.7 218.7-5.5 15.6-22.6 23.9-38.2 18.4-15.6-5.5-23.9-22.6-18.4-38.2 21.7-62 58.7-118.3 106.9-162.8 49.8-45.9 111.2-78.6 177.4-94.5 52.5-12.6 105.9-14.5 158.7-5.8 51 8.5 99.3 26.5 143.6 53.7s82.3 62 113 103.6c31.8 43.1 54.3 91.6 66.9 144.1 3.9 16.1-6.1 32.3-22.2 36.2-2.3 0.6-4.6 0.8-6.9 0.8zM104.3 639.3c-6.3 0-12.6-2-18-6-13.2-10-15.9-28.8-5.9-42l37.8-50.2c8.4-11.2 23.5-15.1 36.3-9.3l59.4 26.7c15.1 6.8 21.9 24.5 15.1 39.7-6.8 15.1-24.5 21.9-39.7 15.1l-37.5-16.9-23.4 31.1c-6 7.7-15 11.8-24.1 11.8z" p-id="3384"></path><path d="M511.8 912.1c-21.7 0-43.5-1.8-65.1-5.4-51-8.5-99.3-26.5-143.6-53.7-44.3-27.1-82.3-62-113-103.6-31.8-43.1-54.3-91.6-66.9-144.1-3.9-16.1 6.1-32.3 22.2-36.2 16.1-3.9 32.3 6.1 36.2 22.2 43.8 182.3 227.7 295 410 251.2 113-27.1 203.3-108.9 241.7-218.7 5.5-15.6 22.6-23.9 38.2-18.4 15.6 5.5 23.9 22.6 18.4 38.2-21.7 62-58.7 118.3-106.9 162.8-50 46-111.4 78.6-177.6 94.5-31 7.5-62.3 11.2-93.6 11.2z" p-id="3385"></path></svg>