<?xml version="1.0" standalone="no"?><!DOCTYPE svg PUBLIC "-//W3C//DTD SVG 1.1//EN" "http://www.w3.org/Graphics/SVG/1.1/DTD/svg11.dtd"><svg t="1629795673719" class="icon" viewBox="0 0 1024 1024" version="1.1" xmlns="http://www.w3.org/2000/svg" p-id="5470" xmlns:xlink="http://www.w3.org/1999/xlink" width="32" height="32"><defs><style type="text/css"></style></defs><path d="M513.7 928.2c-228.2 0-413.9-185.7-413.9-413.9s185.7-413.9 413.9-413.9S927.6 286 927.6 514.3c0 83.6-24.8 163.6-71.9 232.5l27.4 82.3c8.9 26.6 2.2 55.7-17.3 75.8-19.5 20.1-48.4 27.6-75.2 19.6L689.2 889c-54.8 25.7-115.1 39.2-175.5 39.2z m290.9-72.9h0.2-0.2zM513.7 183.1c-182.6 0-331.1 148.6-331.1 331.1s148.6 331.1 331.1 331.1c53.9 0 105.5-12.7 153.4-37.9 10.1-5.3 22.1-6.2 32.9-2.4l99.5 34.7-29-87c-4.3-13-1.9-27.3 6.4-38.2 44.5-58.3 68-127.6 68-200.4 0-182.4-148.6-331-331.2-331z" fill="#333333" p-id="5471"></path><path d="M681.5 465.7H345.9c-22.9 0-41.4-18.5-41.4-41.4s18.5-41.4 41.4-41.4h335.6c22.9 0 41.4 18.5 41.4 41.4s-18.5 41.4-41.4 41.4zM575.5 672.7H345.9c-22.9 0-41.4-18.5-41.4-41.4s18.5-41.4 41.4-41.4h229.6c22.9 0 41.4 18.5 41.4 41.4s-18.5 41.4-41.4 41.4z" fill="#333333" p-id="5472"></path></svg>