<?xml version="1.0" standalone="no"?><!DOCTYPE svg PUBLIC "-//W3C//DTD SVG 1.1//EN" "http://www.w3.org/Graphics/SVG/1.1/DTD/svg11.dtd"><svg t="1629795080047" class="icon" viewBox="0 0 1024 1024" version="1.1" xmlns="http://www.w3.org/2000/svg" p-id="3543" xmlns:xlink="http://www.w3.org/1999/xlink" width="32" height="32"><defs><style type="text/css"></style></defs><path d="M817.4 407.1H155c-35.8 0-65-29.2-65-65V166.5c0-35.8 29.2-65 65-65h662.4c35.8 0 65 29.2 65 65v175.6c0 35.8-29.1 65-65 65zM155 141.5c-13.8 0-25 11.2-25 25v175.6c0 13.8 11.2 25 25 25h662.4c13.8 0 25-11.2 25-25V166.5c0-13.8-11.2-25-25-25H155z" fill="#262626" p-id="3544"></path><path d="M652 894H200.7c-36.6 0-66.4-29.8-66.4-66.4V387.1c0-11 9-20 20-20h663.9c11 0 20 9 20 20V570c0 11-9 20-20 20s-20-9-20-20V407.1h-624v420.5c0 14.6 11.9 26.4 26.4 26.4H652c11 0 20 9 20 20s-9 20-20 20z" fill="#262626" p-id="3545"></path><path d="M748.5 920.5C646.2 920.5 563 837.3 563 735s83.2-185.5 185.5-185.5S934 632.6 934 734.9s-83.2 185.6-185.5 185.6z m0-331.1c-80.2 0-145.5 65.3-145.5 145.5s65.3 145.5 145.5 145.5S894 815.2 894 734.9s-65.3-145.5-145.5-145.5z" fill="#F1571E" p-id="3546"></path><path d="M724.8 802.2c-11 0-20-9-20-20v-94.6c0-11 9-20 20-20s20 9 20 20v94.6c0 11.1-8.9 20-20 20z" fill="#F1571E" p-id="3547"></path><path d="M819.4 802.2h-94.6c-11 0-20-9-20-20s9-20 20-20h94.6c11 0 20 9 20 20s-8.9 20-20 20z" fill="#F1571E" p-id="3548"></path></svg>