<?xml version="1.0" standalone="no"?><!DOCTYPE svg PUBLIC "-//W3C//DTD SVG 1.1//EN" "http://www.w3.org/Graphics/SVG/1.1/DTD/svg11.dtd"><svg t="1629789365214" class="icon" viewBox="0 0 1024 1024" version="1.1" xmlns="http://www.w3.org/2000/svg" p-id="1578" width="32" height="32" xmlns:xlink="http://www.w3.org/1999/xlink"><defs><style type="text/css"></style></defs><path d="M742.4 139.636364c48.756364 0 93.090909 27.694545 114.618182 71.121454l1.442909 3.072L930.839273 349.090909H930.909091l-0.023273 0.069818 0.023273 0.069818v21.224728h-0.023273L930.909091 579.607273a34.909091 34.909091 0 0 1-69.632 3.351272l-0.162909-3.351272V418.909091H163.141818v384a58.181818 58.181818 0 0 0 54.318546 58.065454L221.323636 861.090909h258.397091a34.909091 34.909091 0 0 1 3.374546 69.655273l-3.374546 0.162909H221.323636a127.976727 127.976727 0 0 1-127.860363-122.856727l-0.093091-5.143273-0.023273-453.399273-0.232727-0.093091 72.541091-135.424 1.512727-3.234909a127.953455 127.953455 0 0 1 109.218909-71.005091L281.762909 139.636364H742.4z m168.401455 539.578181c12.846545 12.8 13.847273 32.884364 2.862545 46.266182l-2.187636 2.420364-169.867637 169.890909a35.025455 35.025455 0 0 1-43.008 13.428364 35.444364 35.444364 0 0 1-14.824727-11.170909l-95.045818-95.045819a34.909091 34.909091 0 0 1 46.871273-51.642181l2.490181 2.257454 73.448728 73.448727 150.574545-150.528c13.265455-13.265455 35.048727-12.962909 48.686546 0.674909zM442.274909 500.363636a34.909091 34.909091 0 0 1 0 69.818182h-162.816a34.909091 34.909091 0 0 1 0-69.818182h162.816zM742.4 209.454545H281.762909c-21.550545 0-41.192727 11.892364-51.269818 30.72l-3.025455 6.144L172.450909 349.090909h679.237818l-54.993454-102.795636-1.117091-2.280728a58.181818 58.181818 0 0 0-48.872727-34.39709L742.4 209.454545z" p-id="1579"></path></svg>